<svg xmlns="http://www.w3.org/2000/svg" xmlns:xlink="http://www.w3.org/1999/xlink" viewBox="1083 -741 100 100"><defs><style>.a{fill:#e0e0e0;}.b{clip-path:url(#c);}.c{clip-path:url(#a);}.d{fill:#22b34b;}.e{fill:#fff;}</style><clipPath id="a"><path class="a" d="M0,0H102.9V102.9H0Z"/></clipPath><clipPath id="c"><rect x="1083" y="-741" width="100" height="100"/></clipPath></defs><g id="b" class="b"><rect class="e" x="1083" y="-741" width="100" height="100"/><g class="c" transform="translate(1083 -741)"><path class="d" d="M38.3,69.6a8.575,8.575,0,1,0-8.575-8.575A8.6,8.6,0,0,0,38.3,69.6ZM64.025,31.012H59.737V22.437a21.437,21.437,0,0,0-42.875,0v8.575H12.575A8.6,8.6,0,0,0,4,39.587V82.462a8.6,8.6,0,0,0,8.575,8.575h51.45A8.6,8.6,0,0,0,72.6,82.462V39.587A8.6,8.6,0,0,0,64.025,31.012ZM25.009,22.437a13.291,13.291,0,0,1,26.582,0v8.575H25.009ZM64.025,82.462H12.575V39.587h51.45Z" transform="translate(13.15 3.287)"/></g></g></svg>